<svg xmlns="http://www.w3.org/2000/svg" width="32" height="32" viewBox="0 0 32 32">
  <defs>
    <linearGradient id="gradient" x1="0%" y1="0%" x2="100%" y2="100%">
      <stop offset="0%" stop-color="#6366f1" />
      <stop offset="100%" stop-color="#4f46e5" />
    </linearGradient>
  </defs>
  <rect width="32" height="32" rx="8" fill="url(#gradient)" />
  <path d="M9.5 12c0-1.1.9-2 2-2h2c1.66 0 3 1.34 3 3 0 .35-.06.68-.17.99.34.54.54 1.18.54 1.87 0 1.93-1.57 3.5-3.5 3.5h-3.87V12zm2 1.5v3.5h2c.83 0 1.5-.67 1.5-1.5s-.67-1.5-1.5-1.5h-2zm0-1.5h1.5c.28 0 .5-.22.5-.5s-.22-.5-.5-.5h-1.5v1z" fill="white"/>
  <path d="M18.5 11.5h3.87c1.1 0 2 .9 2 2v2.13c0 1.1-.9 2-2 2h-2.13v1.5h4.13v1.5h-5.87v-9zm2 3h2v-1.5h-2v1.5z" fill="white"/>
</svg>